<svg width="900" height="560" viewBox="0 0 900 560" xmlns="http://www.w3.org/2000/svg">
  <defs>
    <linearGradient id="panel" x1="0" x2="1" y1="0" y2="1">
      <stop offset="0" stop-color="#141a2d"/>
      <stop offset="1" stop-color="#0f1324"/>
    </linearGradient>
    <linearGradient id="accent" x1="0" x2="1" y1="0" y2="0">
      <stop offset="0" stop-color="#ffb86c"/>
      <stop offset="0.5" stop-color="#7cf3d5"/>
      <stop offset="1" stop-color="#6b7cff"/>
    </linearGradient>
  </defs>
  <rect width="900" height="560" rx="28" fill="url(#panel)" stroke="#1f2a44"/>
  <rect x="40" y="40" width="820" height="480" rx="22" fill="#0c1121" stroke="#1b2542"/>
  <text x="90" y="120" fill="#d6e0ff" font-family="Space Grotesk, sans-serif" font-size="26">Crypto Fear &amp; Greed</text>
  <path d="M160 360 A 160 160 0 0 1 480 360" stroke="#1c2745" stroke-width="24" fill="none"/>
  <path d="M160 360 A 160 160 0 0 1 400 260" stroke="url(#accent)" stroke-width="24" fill="none" stroke-linecap="round"/>
  <circle cx="320" cy="360" r="14" fill="#7cf3d5"/>
  <rect x="540" y="170" width="260" height="160" rx="16" fill="#10172e" stroke="#1f2a44"/>
  <path d="M560 300 C 600 260, 660 270, 700 230 C 740 190, 780 180, 820 150" stroke="url(#accent)" stroke-width="6" fill="none"/>
  <circle cx="700" cy="230" r="8" fill="#7cf3d5"/>
  <rect x="540" y="350" width="260" height="110" rx="16" fill="#10172e" stroke="#1f2a44"/>
  <rect x="570" y="380" width="200" height="10" rx="5" fill="#1b2542"/>
  <rect x="570" y="400" width="160" height="10" rx="5" fill="#1b2542"/>
  <rect x="570" y="420" width="180" height="10" rx="5" fill="#1b2542"/>
</svg>
